name rise30.2954peak35.7071fall66.7804.mot
datacolumns 19
datarows 17
range 6.00832300000000 6.03498400000000
endheader
time	ground_force1_vx	ground_force1_vy	ground_force1_vz	ground_force1_px	ground_force1_py	ground_force1_pz	ground_force2_vx	ground_force2_vy	ground_force2_vz	ground_force2_px	ground_force2_py	ground_force2_pz	ground_torque1_x	ground_torque1_y	ground_torque1_z	ground_torque2_x	ground_torque2_y	ground_torque2_z	
6.00832300000000	-5.51739500000000	41.10330200000000	-9.96586500000000	0.31021500000000	0.00000000000000	0.10038400000000	-44.67167200000000	809.11180899999999	-57.81999300000000	0.11961000000000	0.00000000000000	-0.09091300000000	0.00000000000000	-6.42049000000000	0.00000000000000	0.00000000000000	-20.72946000000000	0.00000000000000	
6.00998600000000	-5.95241400000000	48.25444100000000	-11.19111300000000	0.31594200000000	0.00000000000000	0.10137300000000	-45.60933200000000	806.69208900000001	-57.49134400000000	0.11877500000000	0.00000000000000	-0.09080200000000	0.00000000000000	-7.31052300000000	0.00000000000000	0.00000000000000	-20.72386900000000	0.00000000000000	
6.01164600000000	-6.25496500000000	55.51315100000000	-12.29907700000000	0.32110000000000	0.00000000000000	0.10227200000000	-46.57702900000000	804.15816600000005	-57.14531500000000	0.11793900000000	0.00000000000000	-0.09068800000000	0.00000000000000	-8.14323500000000	0.00000000000000	0.00000000000000	-20.72339600000000	0.00000000000000	
6.01331600000000	-6.40919800000000	62.78619300000000	-13.26344100000000	0.32578200000000	0.00000000000000	0.10309500000000	-47.57364900000000	801.50725599999998	-56.78160700000000	0.11710000000000	0.00000000000000	-0.09057200000000	0.00000000000000	-8.89975300000000	0.00000000000000	0.00000000000000	-20.72785100000000	0.00000000000000	
6.01498300000000	-6.40610200000000	70.00208900000000	-14.06690100000000	0.33006500000000	0.00000000000000	0.10385300000000	-48.59792700000000	798.73647700000004	-56.39992500000000	0.11626000000000	0.00000000000000	-0.09045300000000	0.00000000000000	-9.56685900000000	0.00000000000000	0.00000000000000	-20.73701200000000	0.00000000000000	
6.01665000000000	-6.24333600000000	77.11339800000000	-14.70125700000000	0.33400600000000	0.00000000000000	0.10455500000000	-49.64844900000000	795.84286399999996	-55.99997900000000	0.11542000000000	0.00000000000000	-0.09033200000000	0.00000000000000	-10.13721100000000	0.00000000000000	0.00000000000000	-20.75062600000000	0.00000000000000	
6.01833300000000	-5.92453800000000	84.09662800000000	-15.16675100000000	0.33765600000000	0.00000000000000	0.10520800000000	-50.72365900000000	792.82337299999995	-55.58149100000000	0.11458000000000	0.00000000000000	-0.09020900000000	0.00000000000000	-10.60905600000000	0.00000000000000	0.00000000000000	-20.76841200000000	0.00000000000000	
6.01998300000000	-5.45827500000000	90.95019600000001	-15.47082500000000	0.34105300000000	0.00000000000000	0.10581900000000	-51.82185600000000	789.67489599999999	-55.14419100000000	0.11374100000000	0.00000000000000	-0.09008300000000	0.00000000000000	-10.98552600000000	0.00000000000000	0.00000000000000	-20.79005800000000	0.00000000000000	
6.02165000000000	-4.85676600000000	97.69093200000000	-15.62650400000000	0.34423100000000	0.00000000000000	0.10639300000000	-52.94119800000000	786.39426900000001	-54.68782400000000	0.11290400000000	0.00000000000000	-0.08995400000000	0.00000000000000	-11.27364900000000	0.00000000000000	0.00000000000000	-20.81522800000000	0.00000000000000	
6.02331600000000	-4.13452600000000	104.34968499999999	-15.65059800000000	0.34721600000000	0.00000000000000	0.10693400000000	-54.07971000000000	782.97828700000002	-54.21215500000000	0.11206900000000	0.00000000000000	-0.08982200000000	0.00000000000000	-11.48321800000000	0.00000000000000	0.00000000000000	-20.84355500000000	0.00000000000000	
6.02498300000000	-3.30707400000000	110.96653900000000	-15.56191200000000	0.35003100000000	0.00000000000000	0.10744400000000	-55.23528100000000	779.42371400000002	-53.71696600000000	0.11123700000000	0.00000000000000	-0.08968800000000	0.00000000000000	-11.62562000000000	0.00000000000000	0.00000000000000	-20.87464700000000	0.00000000000000	
6.02664800000000	-2.38976700000000	117.58610100000000	-15.37960100000000	0.35269500000000	0.00000000000000	0.10792900000000	-56.40567600000000	775.72729700000002	-53.20206100000000	0.11040900000000	0.00000000000000	-0.08955100000000	0.00000000000000	-11.71274200000000	0.00000000000000	0.00000000000000	-20.90809100000000	0.00000000000000	
6.02832800000000	-1.39686100000000	124.25323200000000	-15.12178000000000	0.35522400000000	0.00000000000000	0.10838900000000	-57.58853700000000	771.88578299999995	-52.66727400000000	0.10958600000000	0.00000000000000	-0.08941200000000	0.00000000000000	-11.75601800000000	0.00000000000000	0.00000000000000	-20.94344700000000	0.00000000000000	
6.02998500000000	-0.34082200000000	131.00946700000000	-14.80445000000000	0.35763200000000	0.00000000000000	0.10882700000000	-58.78138800000000	767.89592900000002	-52.11246300000000	0.10876800000000	0.00000000000000	-0.08926900000000	0.00000000000000	-11.76567900000000	0.00000000000000	0.00000000000000	-20.98025600000000	0.00000000000000	
6.03165100000000	0.76811200000000	137.89029300000001	-14.44077700000000	0.35993000000000	0.00000000000000	0.10924600000000	-59.98164700000000	763.75452099999995	-51.53752000000000	0.10795700000000	0.00000000000000	-0.08912400000000	0.00000000000000	-11.75022000000000	0.00000000000000	0.00000000000000	-21.01803600000000	0.00000000000000	
6.03333500000000	1.92211300000000	144.92333199999999	-14.04070700000000	0.36212800000000	0.00000000000000	0.10964600000000	-61.18662300000000	759.45838900000001	-50.94237200000000	0.10715200000000	0.00000000000000	-0.08897500000000	0.00000000000000	-11.71609400000000	0.00000000000000	0.00000000000000	-21.05628900000000	0.00000000000000	
6.03498400000000	3.11572700000000	152.12741000000000	-13.61089300000000	0.36423500000000	0.00000000000000	0.11003000000000	-62.39353400000000	755.00442399999997	-50.32698000000000	0.10635700000000	0.00000000000000	-0.08882400000000	0.00000000000000	-11.66761500000000	0.00000000000000	0.00000000000000	-21.09449900000000	0.00000000000000	
